<?xml version="1.0"?>
<svg xmlns:rdf="http://www.w3.org/1999/02/22-rdf-syntax-ns#" xmlns="http://www.w3.org/2000/svg" xmlns:cc="http://creativecommons.org/ns#" xmlns:dc="http://purl.org/dc/elements/1.1/" id="svg3335" viewBox="0 0 708.6 536.9" version="1.1">
 <g id="layer1" stroke="#000" transform="translate(229.7,-474.5)">
  <path id="path3794" d="m416 614.7c-135.6-109.1-525-91-590.3-3.9" stroke-width=".5689px" fill="#fc6"/>
  <path id="path3347" d="m209.4 601.9c47.4-31.3 196.6-166 260.4-102 38.2 37.9-58.3 163.3-69.8 186.5-7.7 15.2 5.3 94.8-4.9 139.5-10.5 49.3-176.4 165.8-261 181.1-36.06 10-113.49-21.2-139.89-34.4-104.01-52-113.61-99-161.81-195.3-27.4-86.8 14.8-83.4-19.9-158.9-8-16.1-57.9-96.4-35.9-118.5 74.7-74.7 211.81 34.9 267.01 101.2" stroke-width=".9921" fill="#fc6"/>
  <path id="path3367" d="m52.44 707.1c-6.6-25.3-24.5-94.4-47.082-81.2" stroke-width=".5689px" fill="none"/>
  <path id="path3369" d="m40.43 714.3c-13.17-24.2-20.62-48.9-43.832-61.3" stroke-width=".5689px" fill="none"/>
  <path id="path3371" d="m205.5 717.5c2.9-26.9 16.6-75 46.2-81.2" stroke-width=".5689px" fill="none"/>
  <path id="path3373" d="m197.4 693.6c3.2-29.2 20.4-58 43.1-76.6" stroke-width=".5689px" fill="none"/>
  <path id="path3433" d="m425.2 440.9c54.4-34.8 145.4-61.9 187.8 7" transform="translate(-229.7,474.5)" stroke-width="1px" fill="none"/>
  <path id="path3435" d="m185.7 930.1c46.7-25.8 123.7-36 157.7 1.4" stroke-width="1px" fill="none"/>
  <path id="path3439" d="m256.4 443.7c-43.7-13.3-128.1-43.9-159.72 3.5" transform="translate(-229.7,474.5)" stroke-width="1px" fill="none"/>
  <path id="path3443" d="m269 459.1c-39.4-13.4-121-25.4-153.4 23.2" transform="translate(-229.7,474.5)" stroke-width="1px" fill="none"/>
  <path id="path3445" d="m282.3 472.4c-38.4-7.1-128.2-27.2-128.2 33" transform="translate(-229.7,474.5)" stroke-width="1px" fill="none"/>
  <path id="path3447" d="m404.3 473.8c52.1-25.4 103.8-25.4 150.6 9.8" transform="translate(-229.7,474.5)" stroke-width="1px" fill="none"/>
  <path id="path3449" d="m330.9 179.2c12.1-29.3-36.7-65.2-9.3-78.9 6.3-3.15 64.5-5.92 67.9 4.4 4.3 12.9-15.6 50.8-21.7 63-13 26 14.8 21.8 2.9 45.6-8.1 16.1-14.1 28.2-14.1 49.6 0 12.8-12.9 25.6-26.9-2.5-3.8-7.4 1.2-72.5 1.2-81.2z" transform="translate(-229.7,474.5)" stroke-width="1px" fill="#900"/>
  <path id="path3451" stroke-linejoin="round" d="m331.7 466.7c-1.6-1.4-6.7-8.7-8.4-13.8-5.8-9.1-6.2-7.8-21.7-16.3-6.1-2.3-12.4-6.4-14-7.8l-3-3.1 3.9-1.7c9.6-4 19.8-5.7 39.2-6.2 24-0.7 42.7 1.7 59.4 7.4l5.9 1.9-7.6 7.9c-2.6 2.5-8.8 7.6-16.9 11.7-8.6 5.6-18.5 12.8-22.5 16.2-3.7 3.9-7.6 5.6-8.6 5.6s-4.1-0.5-5.7-1.8z" fill-rule="evenodd" transform="translate(-229.7,474.5)" stroke-linecap="round" stroke-width=".7087" fill="#f30"/>
  <path id="path4247" d="m234.8 378.9c-35.5-8.1-70.5-33.9-87.2-64-6.2-11.3-8.6-20.5-8.7-33.4-0.1-18 0.2-18.6 12.2-22.9 20.4-7.3 29.2-8.6 57.8-8.5 23.3 0 28.1 0.4 38.4 3.2 28.6 7.8 39.4 18.4 46.5 46.2 1.5 5.9 3.2 17.7 3.6 26.2 0.7 12.9 0.3 17.3-2.1 27-3.3 13.2-8.8 20.5-15.5 26-7.4 4-11.6 3.7-19.5 3.6-9.8-0.5-18.1-1.7-25.5-3.4z" fill-rule="evenodd" transform="translate(-229.7,474.5)" fill="#ff9"/>
  <path id="path4225" d="m265 340.1c-18.7-1.4-37.4-3.9-43.5-5.8-9.1-2.9-14.3-6.8-25.5-19.6-5.6-6.4-13.6-15.2-17.8-19.5-12.1-12.7-15.3-19-11.3-22.4 2.2-1.7 19.3-3.7 31.1-3l14.8 0.5c25.2 2.3 32 2.5 49.5 15.6 10.5 10 11.2 20.6 12.7 29.6s1.9 24.4 0.6 25c-0.4 0.2-5.2 0-10.6-0.4z" fill-rule="evenodd" transform="translate(-229.7,474.5)" fill="#900"/>
  <path id="path4221" d="m218.4 323c-7.8-3.3-16.4-12.1-18.8-19.4-3.5-10.4-1.8-20.4 5.1-29.4l2.7-3.6 10 0.7c19.5 1.2 34.8 6.6 44.3 15.5 4.7 4.4 5 5 4.5 8.3-1 5.7-5.2 13.9-9.7 18.8-9.4 10.2-26 14.1-38.1 9.1z" fill-rule="evenodd" transform="translate(-229.7,474.5)" fill="#ff0"/>
  <path id="path4249" d="m411.4 380.8c-6-1.8-9.9-3.5-13.6-7-1.8-1.7-5-6.6-7.1-10.9-3.5-7-3.8-9.3-3.8-21.8 0.1-11.8 0.7-15.6 3.9-23.6 10.2-26.1 30.8-48.3 52.8-57 25.9-10.2 72.6-8.7 107.2 3.3 17.2 6 17.6 6.3 16.8 12-3.8 23.7-15.8 43.9-37.6 63-35.2 31-86.2 49-118.6 42z" fill-rule="evenodd" transform="translate(-229.7,474.5)" fill="#ff9"/>
  <path id="path4227" d="m442.8 336.8c-0.8-0.2-4.8-0.9-8.9-1.5-4.1-0.7-10.9-2.3-15.2-3.7l-7.8-2.4 0.7-3.6c1.8-9.8 10.6-27.4 16.1-32.3 9.4-14.4 50.3-20.4 65.1-19.8 8.7 0 12.8 0.7 21.8 2l7.5 1.6-0.6 5.1c-3.3 27.3-18.8 45.4-44.7 52.2-7.1 1.9-29.6 3.5-34 2.4z" fill-rule="evenodd" transform="translate(-229.7,474.5)" fill="#900"/>
  <path id="path4223" d="m455.6 330c-11.7-4.2-19.5-13.9-22.6-28.2-0.6-2.9-1.1-6.9-1.1-8.9 0-3.4 0.4-4 5.3-6.9 9.8-5.9 27.1-10.3 45.4-11.7l8.6-0.6 2.1 5.8c4.3 11.4 3.6 22-2.1 33.6-7.1 14.5-22.3 21.6-35.6 16.9z" fill-rule="evenodd" transform="translate(-229.7,474.5)" fill="#ff0"/>
  <path id="path4235" d="m125 180.5c-56.24-68.8-79.33-117.83-61.78-130.99 0.91-0.69 3.77-1.77 6.33-2.41 4.02-0.99 5.48-1.03 10.57-0.29 21.28 3.08 50.88 19.4 81.08 44.86 18.1 15.23 53.6 53.33 50.7 54.33-25.4 8.9-40.6 16.5-68.2 34.1-6.6 4.2-12.2 7.6-12.4 7.6-0.3 0-3.1-3.2-6.3-7.2z" fill-rule="evenodd" transform="translate(-229.7,474.5)" fill="#fcf"/>
  <path id="path4237" d="m586.7 183.2c-15.4-10.4-34.4-19.9-50.5-25.5l-8.1-2.7 5.1-8c25-39.5 63.5-74.29 95-85.71 6.2-2.27 15.2-3.11 19.2-1.81 4.2 1.4 6.6 3.92 7.8 8.3 4.3 14.69-8 44.22-35.7 86.22-8.6 13-24.1 34.4-24.8 34.4-0.3 0-3.9-2.4-8-5.2z" fill-rule="evenodd" transform="translate(-229.7,474.5)" fill="#fcf"/>
  <path id="path4251" d="m315.7 532.3c-24.4-6.5-48.3-14-78.1-27.5-17.6-8-57.2-30.7-56.3-31.5 0.2-0.3 27 11.9 38.1 15.6 26.4 8.8 37.8 11.2 57.6 12.2 23.9 1.2 36.3-2.4 47.4-13.5 3-3 7.1-10.5 8.6-14.1 2.9-6.5 4.4-5.2 5.5 0.4 1.9 9.7 11.4 21.3 25.8 25.6 9.1 2.7 33.3 2.7 49.3-0.2 15.3-2.6 40.8-9.4 53.3-14 5.1-2 22.7-9.7 23.1-9.4 1.4 1.5-59.3 33-80 41.7-13.1 5.5-22.5 8.7-39.7 13.4-17.9 4.9-29.7 6.9-47.6 2.8z" fill-rule="evenodd" transform="translate(-229.7,474.5)" fill="#ff9"/>
  <path id="path3391" d="m238.6 793.2c-3.8-5.7-18.9-27.3-4.4-35.9 12.1 12 12 21.3 4.3 35.8" stroke-width=".5689px" fill="#0083d7"/>
  <path id="path3393" d="m-7.862 789.1c9.039-9.2 18.902-15 10.096-33.3-14.284 8.4-14.954 23-10.342 33.1" stroke-width=".5689px" fill="#0083d7"/>
  <path id="path3349" d="m181 804c-0.4 8.4-5.3 84-19.4 100-13.6 15.5-33.2 21.3-47.8 35.9-11.8 11.7-19.79-10.8-21.54-14.3-5.48-11.1-27.42-14.7-35.85-23.2-9.28-8.7-10.25-70.9-10.38-87.4" stroke-width=".9921" fill="none"/>
 </g>
 <metadata>
  <rdf:RDF>
   <cc:Work>
    <dc:format>image/svg+xml</dc:format>
    <dc:type rdf:resource="http://purl.org/dc/dcmitype/StillImage"/>
    <cc:license rdf:resource="http://creativecommons.org/licenses/publicdomain/"/>
    <dc:publisher>
     <cc:Agent rdf:about="http://openclipart.org/">
      <dc:title>Openclipart</dc:title>
     </cc:Agent>
    </dc:publisher>
   </cc:Work>
   <cc:License rdf:about="http://creativecommons.org/licenses/publicdomain/">
    <cc:permits rdf:resource="http://creativecommons.org/ns#Reproduction"/>
    <cc:permits rdf:resource="http://creativecommons.org/ns#Distribution"/>
    <cc:permits rdf:resource="http://creativecommons.org/ns#DerivativeWorks"/>
   </cc:License>
  </rdf:RDF>
 </metadata>
</svg>
